<svg version="1.2" xmlns="http://www.w3.org/2000/svg" xmlns:xlink="http://www.w3.org/1999/xlink" overflow="visible" preserveAspectRatio="none" viewBox="0 0 24 24" width="24" height="24"><g><path xmlns:default="http://www.w3.org/2000/svg" id="shopping-bag" d="M21,17.33H3l-0.33,3.26c-0.02,0.19,0.04,0.38,0.17,0.52c0.13,0.14,0.31,0.23,0.5,0.22h17.32  c0.19,0.01,0.37-0.08,0.5-0.22c0.13-0.14,0.19-0.33,0.17-0.52L21,17.33L21,17.33z M20,8.6c-0.02-0.16-0.1-0.31-0.22-0.42  C19.66,8.06,19.5,8,19.33,8h-2.67v1.33c0,0.74-0.6,1.34-1.34,1.34s-1.34-0.6-1.34-1.34V8H10v1.33c0,0.73-0.6,1.33-1.33,1.33  c-0.35,0-0.69-0.14-0.94-0.39c-0.25-0.25-0.4-0.59-0.39-0.94V8H4.67C4.5,8,4.34,8.06,4.22,8.17C4.1,8.28,4.02,8.43,4,8.6l-0.9,8.07  h17.79L20,8.6L20,8.6z M16,6.67c0.02-1.06-0.41-2.09-1.17-2.83C14.09,3.08,13.06,2.65,12,2.67c-1.06-0.02-2.09,0.41-2.83,1.17  C8.41,4.58,7.98,5.61,8,6.67v2.66C8.05,9.7,8.38,9.96,8.75,9.91c0.31-0.04,0.55-0.28,0.58-0.58V6.67C9.33,5.2,10.53,4,12,4  s2.67,1.2,2.67,2.67v2.66c0.05,0.37,0.38,0.63,0.75,0.58c0.31-0.04,0.55-0.28,0.58-0.58V6.67L16,6.67z" style="fill: rgb(255, 255, 255);" vector-effect="non-scaling-stroke"/></g></svg>