<svg version="1.2" xmlns="http://www.w3.org/2000/svg" xmlns:xlink="http://www.w3.org/1999/xlink" overflow="visible" preserveAspectRatio="none" viewBox="-5.4879999999999995 0 56 56" width="45" height="45"><g>
	<g>
		<path d="M41,17.4c0-0.5-0.1-0.9-0.2-1.2l-0.4-3.1c0-2.5-1.8-3.9-4.4-3.9h-4.2c-0.4-0.8-0.8-1.5-1.3-2.1C29.6,3.1,26,0,21.8,0    c-4.9,0-8.9,4-8.9,8.9c0,0.1,0,0.2,0,0.2H9c-2.6,0-4.4,1.4-4.4,3.9l-0.4,3.1C4.1,16.6,4,17,4,17.4L0,51.1l0,0.1c0,2.6,2.4,5,5,5    h35c2.6,0,5-2.3,5-5L41,17.4z M36,11.2c1.5,0,2.4,0.5,2.4,1.9l0,0.1c-0.7-0.3-1.6-0.1-2.4-0.1h-3.4c0-0.1,0-0.1,0-0.2    c0-0.6-0.1-1.2-0.2-1.8H36z M30.6,13c0,0.1,0,0.1,0,0.2H16.8c0-0.1,0-0.1,0-0.2c0-0.6,0.1-1.2,0.2-1.8h13.3    C30.5,11.7,30.6,12.3,30.6,13z M28.6,8c0,0.3,0.1,0.6,0.1,0.9c0,0.1,0,0.2,0,0.2H18C19.2,7.3,21.3,6,23.8,6    C25.6,6,27.3,6.8,28.6,8z M14.9,8.9C14.9,5.1,18,2,21.8,2c2.2,0,4.2,1.1,5.4,2.7C26.1,4.3,25,4,23.8,4c-3.5,0-6.6,2.1-8,5.2h-0.9    C14.8,9.1,14.9,9,14.9,8.9z M6.6,13.1c0-1.4,0.9-1.9,2.4-1.9h6.1c-0.1,0.6-0.2,1.2-0.2,1.8c0,0.1,0,0.1,0,0.2H9    c-0.8,0-1.7-0.3-2.4,0.1L6.6,13.1z M40,54.2H5c-1.5,0-3-1.4-3-2.9l4-33.7l0-0.1c0-1.5,1.5-2.3,3-2.3h27c1.5,0,3,0.8,3,2.3l4,33.8    C43,52.8,41.5,54.2,40,54.2z M36.8,45.7l-3.9,3.9c-0.4,0.4-0.4,1,0,1.4c0.2,0.2,0.5,0.3,0.7,0.3s0.5-0.1,0.7-0.3l3.9-3.9    c0.4-0.4,0.4-1,0-1.4C37.8,45.3,37.2,45.3,36.8,45.7z M37.6,40.3c-0.4-0.4-1-0.4-1.4,0L27.5,49c-0.4,0.4-0.4,1,0,1.4    c0.2,0.2,0.5,0.3,0.7,0.3s0.5-0.1,0.7-0.3l8.6-8.7C38,41.3,38,40.7,37.6,40.3z" style="fill: rgb(255, 200, 50);" vector-effect="non-scaling-stroke"/>
	</g>
</g><g/></svg>